<svg width="162" height="32" viewBox="0 0 162 32" fill="none" xmlns="http://www.w3.org/2000/svg">
<path d="M39.0469 7.46191H46.7016C48.4746 7.46191 50.0471 7.79687 51.4193 8.4668C52.7914 9.13672 53.8552 10.0871 54.6106 11.3179C55.3661 12.5486 55.7438 13.9897 55.7438 15.6412C55.7438 17.2926 55.3661 18.7337 54.6106 19.9645C53.8552 21.1953 52.7914 22.1456 51.4193 22.8156C50.0471 23.4855 48.4746 23.8204 46.7016 23.8204H39.0469V7.46191ZM46.5166 20.1281C47.9041 20.1281 49.0142 19.7308 49.8467 18.9363C50.6946 18.1417 51.1186 17.0433 51.1186 15.6412C51.1186 14.239 50.6946 13.1407 49.8467 12.3461C49.0142 11.5515 47.9041 11.1543 46.5166 11.1543H43.6258V20.1281H46.5166Z" fill="white"/>
<path d="M72.1858 23.8204L72.1395 15.1504L67.9768 22.208H65.9418L61.8022 15.3841V23.8204H57.5702V7.46191H61.3397L67.0287 16.9031L72.5789 7.46191H76.3484L76.3947 23.8204H72.1858Z" fill="white"/>
<path d="M90.4807 20.6422H83.6355L82.3635 23.8204H77.6921L84.838 7.46191H89.3476L96.5166 23.8204H91.7527L90.4807 20.6422ZM89.1394 17.2303L87.0581 11.9956L84.9768 17.2303H89.1394Z" fill="white"/>
<path d="M104.891 19.4737H102.394V23.8204H97.8147V7.46191H105.215C106.68 7.46191 107.952 7.71119 109.031 8.20973C110.11 8.6927 110.943 9.39378 111.528 10.313C112.114 11.2166 112.407 12.2838 112.407 13.5146C112.407 14.6986 112.13 15.7347 111.575 16.6227C111.035 17.4951 110.257 18.1806 109.239 18.6792L112.731 23.8204H107.828L104.891 19.4737ZM107.782 13.5146C107.782 12.7512 107.543 12.1591 107.065 11.7385C106.587 11.3179 105.878 11.1075 104.938 11.1075H102.394V15.8982H104.938C105.878 15.8982 106.587 15.6957 107.065 15.2906C107.543 14.87 107.782 14.278 107.782 13.5146Z" fill="white"/>
<path d="M121.177 17.8846L119.466 19.7308V23.8204H114.933V7.46191H119.466V14.2624L125.733 7.46191H130.775L124.161 14.7064L131.122 23.8204H125.803L121.177 17.8846Z" fill="white"/>
<path d="M145.902 20.2449V23.8204H132.906V7.46191H145.602V11.0374H137.438V13.795H144.631V17.2537H137.438V20.2449H145.902Z" fill="white"/>
<path d="M152.472 11.1309H147.5V7.46191H162V11.1309H157.051V23.8204H152.472V11.1309Z" fill="white"/>
<path d="M22.0842 31.6497H5.60295C5.59256 31.6497 5.58217 31.6497 5.57178 31.6497L10.0653 23.7611H17.6306C18.0422 23.7611 18.4227 23.5371 18.6289 23.1724C19.1692 22.2141 20.273 20.2604 21.201 18.6155C21.6901 17.7495 22.1305 16.9691 22.4159 16.4645C22.5182 16.2825 22.5701 16.0787 22.5701 15.8758C22.5701 15.672 22.5182 15.4682 22.4159 15.2862C22.1305 14.7816 21.6901 14.0013 21.201 13.1352C20.273 11.4904 19.1692 9.53662 18.6289 8.57915C18.4227 8.21444 18.0422 7.98963 17.6306 7.98963H10.0653L5.57178 0.101883C5.58217 0.101074 5.59256 0.101074 5.60295 0.101074H22.0842C22.4958 0.101074 22.8763 0.325884 23.0825 0.690594L31.3231 15.2862C31.4254 15.4682 31.4774 15.672 31.4774 15.8758C31.4774 16.0787 31.4254 16.2825 31.3231 16.4645L23.0825 31.0609C22.8763 31.4248 22.4958 31.6497 22.0842 31.6497Z" fill="#49BC74"/>
<path d="M4.10572 15.8731C4.10732 15.6677 4.05616 15.4614 3.95145 15.2763C3.12579 13.8142 0.988511 10.028 0.162851 8.56594C-0.0425649 8.20123 -0.0425649 7.75241 0.162851 7.38851L3.97543 0.635323C4.09293 0.458225 4.232 0.34016 4.36708 0.261719L12.8195 15.2763C12.9242 15.4623 12.9754 15.6693 12.9738 15.8771C12.9754 16.0841 12.9242 16.2911 12.8195 16.4771L4.36708 31.4917C4.232 31.4132 4.09293 31.2952 3.97543 31.1181L0.162851 24.3649C-0.0425649 24.001 -0.0425649 23.5522 0.162851 23.1883C0.988511 21.7254 3.12579 17.9392 3.95145 16.4771C4.05616 16.2928 4.10732 16.0866 4.10572 15.8803V15.8771V15.8731Z" fill="#49BC74"/>
</svg>
