<svg width="99" height="86" viewBox="0 0 99 86" fill="none" xmlns="http://www.w3.org/2000/svg">
<path id="Vector" d="M5.9073 86C2.83623 86 1.30069 86 0.72291 85.0023C0.145125 84.0045 0.909407 82.6727 2.43797 80.0091L46.0307 4.04555C47.5714 1.36068 48.3418 0.0182409 49.5 0.0182409C50.6582 0.0182409 51.4286 1.36068 52.9693 4.04556L96.562 80.0091C98.0906 82.6727 98.8549 84.0045 98.2771 85.0023C97.6993 86 96.1638 86 93.0927 86H5.9073ZM49.5 72.1053C50.8008 72.1053 51.8911 71.6614 52.771 70.7737C53.651 69.886 54.0909 68.786 54.0909 67.4737C54.0909 66.1614 53.651 65.0614 52.771 64.1737C51.8911 63.286 50.8008 62.8421 49.5 62.8421C48.1992 62.8421 47.1089 63.286 46.229 64.1737C45.3491 65.0614 44.9091 66.1614 44.9091 67.4737C44.9091 68.786 45.3491 69.886 46.229 70.7737C47.1089 71.6614 48.1992 72.1053 49.5 72.1053ZM44.9091 54.2105C44.9091 56.0961 44.9091 57.039 45.4949 57.6247C46.0807 58.2105 47.0235 58.2105 48.9091 58.2105H50.0909C51.9765 58.2105 52.9193 58.2105 53.5051 57.6247C54.0909 57.039 54.0909 56.0961 54.0909 54.2105V39.0526C54.0909 37.167 54.0909 36.2242 53.5051 35.6384C52.9193 35.0526 51.9765 35.0526 50.0909 35.0526H48.9091C47.0235 35.0526 46.0807 35.0526 45.4949 35.6384C44.9091 36.2242 44.9091 37.167 44.9091 39.0526V54.2105Z" fill="url(#paint0_linear_640_45)" fill-opacity="0.8"/>
<defs>
<linearGradient id="paint0_linear_640_45" x1="89.6704" y1="-2" x2="20.7452" y2="89.9205" gradientUnits="userSpaceOnUse">
<stop stop-color="#FE8DF9"/>
<stop offset="1" stop-color="#FF5030"/>
</linearGradient>
</defs>
</svg>
