<svg width="239" height="79" viewBox="0 0 239 79" fill="none" xmlns="http://www.w3.org/2000/svg">
  <path d="M70.5958 47.7706V12.5273C70.5958 10.0834 68.6381 8.08993 66.1946 8.04572L55.0479 7.84406H39.5H23.9522L12.8055 8.04572C10.362 8.08993 8.4043 10.0834 8.4043 12.5273V47.7742C8.4043 55.0481 11.8663 61.8432 17.6363 65.881C22.2294 69.0953 33.3646 73.7303 37.7157 75.4873C38.8578 75.9484 40.1311 75.9009 41.2449 75.3753L61.3638 65.881C67.1303 61.8468 70.5958 55.0481 70.5958 47.7706Z" fill="#4F5258"/>
  <path d="M47.1146 53.7873H30.6304C30.6193 53.7873 30.6082 53.7873 30.5971 53.7873L35.3973 45.3815H42.3571C42.7968 45.3815 43.2032 45.1428 43.4235 44.7542C44.0007 43.7331 45.1798 41.6513 46.1711 39.8986C46.6937 38.9757 47.1641 38.1442 47.4689 37.6065C47.5782 37.4126 47.6337 37.1955 47.6337 36.9792C47.6337 36.7621 47.5782 36.5449 47.4689 36.351C47.1641 35.8133 46.6937 34.9818 46.1711 34.0589C45.1798 32.3063 44.0007 30.2244 43.4235 29.2042C43.2032 28.8156 42.7968 28.576 42.3571 28.576H35.3973L30.5971 20.1711C30.6082 20.1703 30.6193 20.1703 30.6304 20.1703H47.1146C47.5543 20.1703 47.9607 20.4098 48.181 20.7984L56.984 36.351C57.0933 36.5449 57.1488 36.7621 57.1488 36.9792C57.1488 37.1955 57.0933 37.4126 56.984 37.6065L48.181 53.16C47.9607 53.5477 47.5543 53.7873 47.1146 53.7873Z" fill="#151618"/>
  <path d="M27.9082 36.9749C27.9099 36.7561 27.8553 36.5363 27.7435 36.339C26.8614 34.7811 24.5783 30.7466 23.6963 29.1887C23.4769 28.8001 23.4769 28.3219 23.6963 27.9341L27.7691 20.7381C27.8946 20.5494 28.0431 20.4236 28.1874 20.34L37.2167 36.339C37.3285 36.5372 37.3832 36.7578 37.3814 36.9792C37.3832 37.1998 37.3285 37.4204 37.2167 37.6186L28.1874 53.6176C28.0431 53.534 27.8946 53.4082 27.7691 53.2195L23.6963 46.0235C23.4769 45.6357 23.4769 45.1575 23.6963 44.7698C24.5783 43.211 26.8614 39.1765 27.7435 37.6186C27.8553 37.4221 27.9099 37.2024 27.9082 36.9827V36.9749Z" fill="#151618"/>
  <path d="M87.3107 22.4852V18.7248H98.3707V22.4852H95.0527V39.17H90.6287V22.4852H87.3107ZM104.816 30.796V39.17H100.392V18.7248H108.26C110.872 18.7248 112.178 20.1152 112.178 22.896V25.266C112.178 26.9513 111.578 28.0257 110.377 28.4892C111.431 28.8684 111.957 29.7321 111.957 31.0804V39.17H107.533V31.428C107.533 31.0067 107.333 30.796 106.933 30.796H104.816ZM104.816 21.7268V27.6992H107.154C107.323 27.6992 107.459 27.636 107.565 27.5096C107.691 27.3832 107.754 27.2357 107.754 27.0672V22.3588C107.754 22.1903 107.691 22.0428 107.565 21.9164C107.459 21.79 107.323 21.7268 107.154 21.7268H104.816ZM122.319 18.7248H126.743V35.3148C126.743 38.0956 125.436 39.486 122.824 39.486H118.906C116.293 39.486 114.987 38.0956 114.987 35.3148V18.7248H119.411V35.694C119.411 35.8625 119.464 36.01 119.569 36.1364C119.696 36.2628 119.843 36.326 120.012 36.326H121.718C121.887 36.326 122.024 36.2628 122.129 36.1364C122.255 36.01 122.319 35.8625 122.319 35.694V18.7248ZM141.114 24.0968H136.911V22.4852C136.911 22.3167 136.848 22.1692 136.722 22.0428C136.616 21.9164 136.479 21.8532 136.311 21.8532H134.573C134.404 21.8532 134.257 21.9164 134.131 22.0428C134.025 22.1692 133.973 22.3167 133.973 22.4852V26.1192C133.973 26.2877 134.025 26.4352 134.131 26.5616C134.257 26.688 134.404 26.7512 134.573 26.7512H137.417C140.029 26.7933 141.335 28.1837 141.335 30.9224V35.3148C141.335 38.0956 140.029 39.486 137.417 39.486H133.688C131.076 39.486 129.77 38.0956 129.77 35.3148V33.1976H133.973V35.4728C133.973 35.6413 134.025 35.7888 134.131 35.9152C134.257 36.0416 134.404 36.1048 134.573 36.1048H136.532C136.701 36.1048 136.838 36.0416 136.943 35.9152C137.069 35.7888 137.133 35.6413 137.133 35.4728V31.4596C137.133 31.2911 137.069 31.1436 136.943 31.0172C136.838 30.8908 136.701 30.8276 136.532 30.8276H133.688C131.076 30.8276 129.77 29.4372 129.77 26.6564V22.58C129.77 19.7992 131.076 18.4088 133.688 18.4088H137.196C139.808 18.4088 141.114 19.7992 141.114 22.58V24.0968ZM143.074 22.4852V18.7248H154.134V22.4852H150.816V39.17H146.392V22.4852H143.074ZM173.887 24.0968H169.684V22.4852C169.684 22.3167 169.621 22.1692 169.494 22.0428C169.389 21.9164 169.252 21.8532 169.084 21.8532H167.346C167.177 21.8532 167.03 21.9164 166.903 22.0428C166.798 22.1692 166.745 22.3167 166.745 22.4852V26.1192C166.745 26.2877 166.798 26.4352 166.903 26.5616C167.03 26.688 167.177 26.7512 167.346 26.7512H170.19C172.802 26.7933 174.108 28.1837 174.108 30.9224V35.3148C174.108 38.0956 172.802 39.486 170.19 39.486H166.461C163.849 39.486 162.542 38.0956 162.542 35.3148V33.1976H166.745V35.4728C166.745 35.6413 166.798 35.7888 166.903 35.9152C167.03 36.0416 167.177 36.1048 167.346 36.1048H169.305C169.473 36.1048 169.61 36.0416 169.716 35.9152C169.842 35.7888 169.905 35.6413 169.905 35.4728V31.4596C169.905 31.2911 169.842 31.1436 169.716 31.0172C169.61 30.8908 169.473 30.8276 169.305 30.8276H166.461C163.849 30.8276 162.542 29.4372 162.542 26.6564V22.58C162.542 19.7992 163.849 18.4088 166.461 18.4088H169.968C172.581 18.4088 173.887 19.7992 173.887 22.58V24.0968ZM181.439 31.1436V39.17H177.015V18.7248H181.439V27.2884H184.947V18.7248H189.371V39.17H184.947V31.1436H181.439ZM196.962 18.7248V39.17H192.538V18.7248H196.962ZM204.677 35.5044H209.575V39.17H200.253V18.7248H209.575V22.3272H204.677V27.1304H209.259V30.6064H204.677V35.5044ZM216.557 35.4412H221.392V39.17H212.133V18.7248H216.557V35.4412ZM231.611 18.7248C234.223 18.7248 235.529 20.1152 235.529 22.896V34.9988C235.529 37.7796 234.223 39.17 231.611 39.17H223.49V18.7248H231.611ZM231.105 35.5044V22.3588C231.105 22.1903 231.042 22.0428 230.916 21.9164C230.81 21.79 230.673 21.7268 230.505 21.7268H227.914V36.1364H230.505C230.673 36.1364 230.81 36.0732 230.916 35.9468C231.042 35.8204 231.105 35.6729 231.105 35.5044Z" fill="#4F5258"/>
  <path d="M87.4666 56.61V50.8645H89.6211C90.0625 50.8645 90.4328 50.9468 90.7321 51.1114C91.0332 51.276 91.2604 51.5023 91.4138 51.7903C91.569 52.0765 91.6466 52.4019 91.6466 52.7666C91.6466 53.135 91.569 53.4623 91.4138 53.7485C91.2586 54.0346 91.0294 54.26 90.7265 54.4246C90.4235 54.5873 90.0504 54.6687 89.6071 54.6687H88.1792V53.813H89.4668C89.7249 53.813 89.9363 53.7681 90.1009 53.6783C90.2654 53.5886 90.387 53.4651 90.4656 53.308C90.546 53.1509 90.5862 52.9704 90.5862 52.7666C90.5862 52.5627 90.546 52.3832 90.4656 52.228C90.387 52.0727 90.2645 51.9521 90.0981 51.8661C89.9335 51.7782 89.7212 51.7342 89.4612 51.7342H88.5074V56.61H87.4666ZM94.6837 56.61V50.8645H96.8382C97.2796 50.8645 97.6499 50.9412 97.9492 51.0946C98.2503 51.2479 98.4775 51.463 98.6309 51.7398C98.7861 52.0147 98.8637 52.3355 98.8637 52.7021C98.8637 53.0705 98.7852 53.3903 98.6281 53.6615C98.4728 53.9308 98.2437 54.1394 97.9407 54.2871C97.6378 54.433 97.2656 54.5059 96.8242 54.5059H95.2896V53.6419H96.6839C96.942 53.6419 97.1534 53.6063 97.3179 53.5353C97.4825 53.4623 97.6041 53.3567 97.6826 53.2183C97.7631 53.078 97.8033 52.9059 97.8033 52.7021C97.8033 52.4982 97.7631 52.3243 97.6826 52.1803C97.6022 52.0344 97.4797 51.924 97.3151 51.8492C97.1506 51.7725 96.9383 51.7342 96.6783 51.7342H95.7245V56.61H94.6837ZM97.6518 54.0066L99.0741 56.61H97.9127L96.5156 54.0066H97.6518ZM107.089 53.7373C107.089 54.3563 106.973 54.8865 106.741 55.3279C106.511 55.7674 106.197 56.1041 105.798 56.3379C105.402 56.5716 104.952 56.6885 104.449 56.6885C103.946 56.6885 103.495 56.5716 103.097 56.3379C102.7 56.1022 102.386 55.7646 102.154 55.3251C101.924 54.8837 101.809 54.3544 101.809 53.7373C101.809 53.1182 101.924 52.5889 102.154 52.1494C102.386 51.708 102.7 51.3704 103.097 51.1367C103.495 50.9029 103.946 50.786 104.449 50.786C104.952 50.786 105.402 50.9029 105.798 51.1367C106.197 51.3704 106.511 51.708 106.741 52.1494C106.973 52.5889 107.089 53.1182 107.089 53.7373ZM106.042 53.7373C106.042 53.3015 105.974 52.934 105.837 52.6347C105.703 52.3336 105.516 52.1064 105.276 51.953C105.037 51.7978 104.761 51.7202 104.449 51.7202C104.136 51.7202 103.861 51.7978 103.621 51.953C103.382 52.1064 103.194 52.3336 103.057 52.6347C102.923 52.934 102.855 53.3015 102.855 53.7373C102.855 54.173 102.923 54.5415 103.057 54.8426C103.194 55.1418 103.382 55.3691 103.621 55.5243C103.861 55.6777 104.136 55.7543 104.449 55.7543C104.761 55.7543 105.037 55.6777 105.276 55.5243C105.516 55.3691 105.703 55.1418 105.837 54.8426C105.974 54.5415 106.042 54.173 106.042 53.7373ZM112.153 56.61H110.206V50.8645H112.192C112.762 50.8645 113.252 50.9796 113.662 51.2096C114.073 51.4378 114.389 51.766 114.61 52.1943C114.831 52.6226 114.941 53.135 114.941 53.7316C114.941 54.3301 114.83 54.8445 114.607 55.2746C114.387 55.7048 114.068 56.0349 113.651 56.2649C113.235 56.495 112.736 56.61 112.153 56.61ZM111.246 55.7095H112.102C112.502 55.7095 112.836 55.6365 113.104 55.4906C113.371 55.3429 113.572 55.1231 113.707 54.8314C113.841 54.5377 113.909 54.1712 113.909 53.7316C113.909 53.2921 113.841 52.9274 113.707 52.6375C113.572 52.3458 113.373 52.1279 113.109 51.9839C112.847 51.838 112.522 51.7651 112.133 51.7651H111.246V55.7095ZM121.685 50.8645H122.726V54.6182C122.726 55.0296 122.628 55.3915 122.434 55.7038C122.241 56.0162 121.97 56.2602 121.62 56.4361C121.271 56.61 120.862 56.697 120.394 56.697C119.925 56.697 119.515 56.61 119.166 56.4361C118.816 56.2602 118.545 56.0162 118.352 55.7038C118.159 55.3915 118.063 55.0296 118.063 54.6182V50.8645H119.104V54.5312C119.104 54.7706 119.156 54.9838 119.261 55.1708C119.368 55.3578 119.517 55.5047 119.71 55.6113C119.902 55.716 120.131 55.7684 120.394 55.7684C120.658 55.7684 120.886 55.716 121.079 55.6113C121.273 55.5047 121.423 55.3578 121.528 55.1708C121.632 54.9838 121.685 54.7706 121.685 54.5312V50.8645ZM130.908 52.8031H129.859C129.829 52.631 129.773 52.4786 129.693 52.3458C129.613 52.2111 129.513 52.097 129.393 52.0035C129.273 51.91 129.137 51.8399 128.983 51.7931C128.832 51.7445 128.668 51.7202 128.492 51.7202C128.18 51.7202 127.903 51.7987 127.662 51.9558C127.421 52.1111 127.232 52.3392 127.095 52.6403C126.959 52.9396 126.89 53.3052 126.89 53.7373C126.89 54.1768 126.959 54.5471 127.095 54.8482C127.234 55.1474 127.423 55.3737 127.662 55.5271C127.903 55.6786 128.179 55.7543 128.49 55.7543C128.662 55.7543 128.822 55.7319 128.972 55.687C129.124 55.6403 129.259 55.572 129.379 55.4822C129.5 55.3924 129.602 55.2821 129.685 55.1512C129.769 55.0203 129.827 54.8706 129.859 54.7023L130.908 54.7079C130.868 54.981 130.783 55.2372 130.652 55.4766C130.523 55.716 130.354 55.9273 130.145 56.1106C129.935 56.292 129.69 56.4342 129.41 56.537C129.129 56.638 128.818 56.6885 128.475 56.6885C127.971 56.6885 127.52 56.5716 127.123 56.3379C126.727 56.1041 126.414 55.7665 126.186 55.3251C125.958 54.8837 125.844 54.3544 125.844 53.7373C125.844 53.1182 125.959 52.5889 126.189 52.1494C126.419 51.708 126.732 51.3704 127.129 51.1367C127.525 50.9029 127.974 50.786 128.475 50.786C128.795 50.786 129.093 50.8309 129.368 50.9206C129.643 51.0104 129.888 51.1423 130.103 51.3162C130.318 51.4883 130.494 51.6996 130.633 51.9502C130.773 52.199 130.865 52.4832 130.908 52.8031ZM133.741 51.737V50.8645H138.325V51.737H136.55V56.61H135.517V51.737H133.741ZM142.383 50.8645V56.61H141.342V50.8645H142.383ZM150.777 53.7373C150.777 54.3563 150.661 54.8865 150.429 55.3279C150.199 55.7674 149.885 56.1041 149.486 56.3379C149.09 56.5716 148.64 56.6885 148.137 56.6885C147.634 56.6885 147.183 56.5716 146.785 56.3379C146.388 56.1022 146.074 55.7646 145.842 55.3251C145.612 54.8837 145.497 54.3544 145.497 53.7373C145.497 53.1182 145.612 52.5889 145.842 52.1494C146.074 51.708 146.388 51.3704 146.785 51.1367C147.183 50.9029 147.634 50.786 148.137 50.786C148.64 50.786 149.09 50.9029 149.486 51.1367C149.885 51.3704 150.199 51.708 150.429 52.1494C150.661 52.5889 150.777 53.1182 150.777 53.7373ZM149.73 53.7373C149.73 53.3015 149.662 52.934 149.526 52.6347C149.391 52.3336 149.204 52.1064 148.965 51.953C148.725 51.7978 148.449 51.7202 148.137 51.7202C147.825 51.7202 147.549 51.7978 147.309 51.953C147.07 52.1064 146.882 52.3336 146.746 52.6347C146.611 52.934 146.544 53.3015 146.544 53.7373C146.544 54.173 146.611 54.5415 146.746 54.8426C146.882 55.1418 147.07 55.3691 147.309 55.5243C147.549 55.6777 147.825 55.7543 148.137 55.7543C148.449 55.7543 148.725 55.6777 148.965 55.5243C149.204 55.3691 149.391 55.1418 149.526 54.8426C149.662 54.5415 149.73 54.173 149.73 53.7373ZM158.615 50.8645V56.61H157.69L154.982 52.6965H154.935V56.61H153.894V50.8645H154.825L157.53 54.7809H157.58V50.8645H158.615ZM165.975 56.61V50.8645H168.174C168.59 50.8645 168.935 50.93 169.21 51.0609C169.486 51.19 169.693 51.3667 169.83 51.5911C169.968 51.8156 170.037 52.0699 170.037 52.3542C170.037 52.588 169.992 52.7881 169.903 52.9546C169.813 53.1191 169.692 53.2529 169.541 53.3557C169.389 53.4586 169.22 53.5325 169.033 53.5774V53.6335C169.237 53.6447 169.432 53.7073 169.619 53.8214C169.808 53.9336 169.962 54.0926 170.082 54.2983C170.202 54.5041 170.262 54.7528 170.262 55.0446C170.262 55.3419 170.19 55.6094 170.046 55.8469C169.902 56.0826 169.685 56.2687 169.395 56.4052C169.105 56.5417 168.74 56.61 168.301 56.61H165.975ZM167.016 55.7403H168.135C168.513 55.7403 168.785 55.6683 168.952 55.5243C169.12 55.3784 169.204 55.1914 169.204 54.9632C169.204 54.793 169.162 54.6397 169.078 54.5031C168.994 54.3647 168.874 54.2563 168.719 54.1777C168.563 54.0973 168.378 54.0571 168.163 54.0571H167.016V55.7403ZM167.016 53.308H168.045C168.225 53.308 168.387 53.2753 168.531 53.2098C168.675 53.1425 168.788 53.0481 168.87 52.9265C168.954 52.8031 168.996 52.6572 168.996 52.4889C168.996 52.2663 168.918 52.083 168.761 51.939C168.606 51.795 168.375 51.723 168.068 51.723H167.016V53.308ZM172.907 50.8645H174.083L175.488 53.4062H175.544L176.95 50.8645H178.125L176.035 54.4667V56.61H174.997V54.4667L172.907 50.8645ZM187.035 56.61H185.088V50.8645H187.074C187.645 50.8645 188.135 50.9796 188.544 51.2096C188.956 51.4378 189.272 51.766 189.493 52.1943C189.713 52.6226 189.824 53.135 189.824 53.7316C189.824 54.3301 189.712 54.8445 189.49 55.2746C189.269 55.7048 188.95 56.0349 188.533 56.2649C188.118 56.495 187.619 56.61 187.035 56.61ZM186.129 55.7095H186.985C187.385 55.7095 187.719 55.6365 187.986 55.4906C188.253 55.3429 188.455 55.1231 188.589 54.8314C188.724 54.5377 188.791 54.1712 188.791 53.7316C188.791 53.2921 188.724 52.9274 188.589 52.6375C188.455 52.3458 188.255 52.1279 187.992 51.9839C187.73 51.838 187.404 51.7651 187.015 51.7651H186.129V55.7095ZM192.945 50.8645H194.219L195.925 55.0277H195.992L197.698 50.8645H198.971V56.61H197.973V52.6628H197.919L196.332 56.5932H195.585L193.998 52.6544H193.944V56.61H192.945V50.8645ZM202.976 56.61H201.865L203.887 50.8645H205.172L207.198 56.61H206.087L204.552 52.0428H204.507L202.976 56.61ZM203.012 54.3573H206.042V55.1933H203.012V54.3573ZM210.088 56.61V50.8645H212.242C212.683 50.8645 213.054 50.9412 213.353 51.0946C213.654 51.2479 213.881 51.463 214.035 51.7398C214.19 52.0147 214.268 52.3355 214.268 52.7021C214.268 53.0705 214.189 53.3903 214.032 53.6615C213.877 53.9308 213.648 54.1394 213.345 54.2871C213.042 54.433 212.669 54.5059 212.228 54.5059H210.694V53.6419H212.088C212.346 53.6419 212.557 53.6063 212.722 53.5353C212.886 53.4623 213.008 53.3567 213.087 53.2183C213.167 53.078 213.207 52.9059 213.207 52.7021C213.207 52.4982 213.167 52.3243 213.087 52.1803C213.006 52.0344 212.884 51.924 212.719 51.8492C212.554 51.7725 212.342 51.7342 212.082 51.7342H211.128V56.61H210.088ZM213.056 54.0066L214.478 56.61H213.317L211.919 54.0066H213.056ZM217.359 56.61V50.8645H218.399V53.5044H218.47L220.711 50.8645H221.982L219.76 53.4427L222.002 56.61H220.75L219.036 54.1468L218.399 54.8987V56.61H217.359ZM224.838 56.61V50.8645H228.575V51.737H225.879V53.2968H228.381V54.1693H225.879V55.7375H228.597V56.61H224.838ZM231.517 51.737V50.8645H236.101V51.737H234.325V56.61H233.293V51.737H231.517Z" fill="#4F5258"/>
</svg>
