<svg width="103" height="28" viewBox="0 0 103 28" fill="none" xmlns="http://www.w3.org/2000/svg">
  <path d="M25 17.0186V4.65508C25 3.79107 24.3078 3.08634 23.4439 3.07082L19.5 3H14H8.5L4.55606 3.07082C3.69219 3.08634 3 3.79106 3 4.65507V17.0199C3 19.5738 4.22467 21.9596 6.26578 23.3774C7.89218 24.507 11.8373 26.1365 13.3733 26.752C13.7747 26.9129 14.2215 26.8963 14.6131 26.7128L21.7342 23.3774C23.7741 21.9609 25 19.5738 25 17.0186Z" fill="#49BC74"/>
  <path d="M24.8604 4.65508V17.0186C24.8604 19.5256 23.6595 21.8656 21.6642 23.2559L14.5538 26.5864C14.1964 26.7538 13.7899 26.7685 13.4253 26.6224C12.6582 26.315 11.29 25.7546 9.91104 25.1303C8.52893 24.5045 7.1469 23.8194 6.34544 23.2627C4.34316 21.8719 3.13963 19.5297 3.13963 17.0199V4.65507C3.13963 3.86721 3.77082 3.22458 4.55857 3.21044L8.50125 3.13963H14H19.4987H19.5L23.4414 3.21044C24.2292 3.22458 24.8604 3.86721 24.8604 4.65508Z" stroke="white" stroke-opacity="0.2" stroke-width="0.27927"/>
  <path d="M16.9182 19.5H11.034C11.03 19.5 11.026 19.5 11.0221 19.5L12.7356 16.4995H15.2199C15.3769 16.4995 15.522 16.4143 15.6006 16.2755C15.8066 15.911 16.2275 15.1679 16.5814 14.5423C16.7679 14.2128 16.9359 13.916 17.0447 13.7241C17.0837 13.6549 17.1035 13.5774 17.1035 13.5002C17.1035 13.4226 17.0837 13.3451 17.0447 13.2759C16.9359 13.084 16.7679 12.7872 16.5814 12.4577C16.2275 11.8321 15.8066 11.089 15.6006 10.7248C15.522 10.586 15.3769 10.5005 15.2199 10.5005H12.7356L11.0221 7.50031C11.026 7.5 11.03 7.5 11.034 7.5H16.9182C17.0751 7.5 17.2202 7.58551 17.2989 7.72423L20.4412 13.2759C20.4802 13.3451 20.5 13.4226 20.5 13.5002C20.5 13.5774 20.4802 13.6549 20.4412 13.7241L17.2989 19.2761C17.2202 19.4145 17.0751 19.5 16.9182 19.5Z" fill="black"/>
  <path d="M10.0622 13.4986C10.0629 13.4205 10.0433 13.3421 10.0034 13.2716C9.68858 12.7155 8.87359 11.2754 8.55875 10.7192C8.48042 10.5805 8.48042 10.4098 8.55875 10.2714L10.0126 7.70271C10.0574 7.63535 10.1104 7.59044 10.1619 7.56061L13.385 13.2716C13.4249 13.3424 13.4444 13.4211 13.4438 13.5002C13.4444 13.5789 13.4249 13.6577 13.385 13.7284L10.1619 19.4394C10.1104 19.4096 10.0574 19.3647 10.0126 19.2973L8.55875 16.7286C8.48042 16.5902 8.48042 16.4195 8.55875 16.2811C8.87359 15.7247 9.68858 14.2845 10.0034 13.7284C10.0433 13.6583 10.0629 13.5798 10.0622 13.5014V13.4986Z" fill="black"/>
  <path d="M31.1962 11.0295V9.23311H36.4797V11.0295H34.8947V19H32.7813V11.0295H31.1962ZM39.5585 14.9997V19H37.4451V9.23311H41.204C42.4519 9.23311 43.0758 9.89732 43.0758 11.2257V12.3579C43.0758 13.163 42.789 13.6763 42.2154 13.8977C42.7186 14.0788 42.9701 14.4914 42.9701 15.1355V19H40.8568V15.3016C40.8568 15.1003 40.7611 14.9997 40.5699 14.9997H39.5585ZM39.5585 10.6672V13.5203H40.6756C40.7561 13.5203 40.8215 13.4901 40.8718 13.4297C40.9322 13.3693 40.9624 13.2989 40.9624 13.2184V10.9691C40.9624 10.8886 40.9322 10.8182 40.8718 10.7578C40.8215 10.6974 40.7561 10.6672 40.6756 10.6672H39.5585ZM47.9199 9.23311H50.0333V17.1583C50.0333 18.4867 49.4093 19.151 48.1614 19.151H46.2895C45.0416 19.151 44.4177 18.4867 44.4177 17.1583V9.23311H46.5311V17.3395C46.5311 17.42 46.5562 17.4904 46.6065 17.5508C46.6669 17.6112 46.7374 17.6414 46.8179 17.6414H47.633C47.7136 17.6414 47.779 17.6112 47.8293 17.5508C47.8897 17.4904 47.9199 17.42 47.9199 17.3395V9.23311ZM56.8987 11.7994H54.891V11.0295C54.891 10.949 54.8608 10.8785 54.8004 10.8182C54.7501 10.7578 54.6847 10.7276 54.6042 10.7276H53.7739C53.6934 10.7276 53.623 10.7578 53.5626 10.8182C53.5123 10.8785 53.4871 10.949 53.4871 11.0295V12.7655C53.4871 12.846 53.5123 12.9165 53.5626 12.9768C53.623 13.0372 53.6934 13.0674 53.7739 13.0674H55.1325C56.3804 13.0875 57.0044 13.7517 57.0044 15.06V17.1583C57.0044 18.4867 56.3804 19.151 55.1325 19.151H53.3512C52.1033 19.151 51.4794 18.4867 51.4794 17.1583V16.1469H53.4871V17.2338C53.4871 17.3143 53.5123 17.3848 53.5626 17.4451C53.623 17.5055 53.6934 17.5357 53.7739 17.5357H54.7098C54.7904 17.5357 54.8558 17.5055 54.9061 17.4451C54.9665 17.3848 54.9967 17.3143 54.9967 17.2338V15.3167C54.9967 15.2362 54.9665 15.1657 54.9061 15.1053C54.8558 15.0449 54.7904 15.0147 54.7098 15.0147H53.3512C52.1033 15.0147 51.4794 14.3505 51.4794 13.0221V11.0748C51.4794 9.74637 52.1033 9.08216 53.3512 9.08216H55.0269C56.2748 9.08216 56.8987 9.74637 56.8987 11.0748V11.7994ZM57.8348 11.0295V9.23311H63.1182V11.0295H61.5332V19H59.4198V11.0295H57.8348ZM72.5546 11.7994H70.5468V11.0295C70.5468 10.949 70.5166 10.8785 70.4563 10.8182C70.4059 10.7578 70.3405 10.7276 70.26 10.7276H69.4298C69.3492 10.7276 69.2788 10.7578 69.2184 10.8182C69.1681 10.8785 69.1429 10.949 69.1429 11.0295V12.7655C69.1429 12.846 69.1681 12.9165 69.2184 12.9768C69.2788 13.0372 69.3492 13.0674 69.4298 13.0674H70.7884C72.0363 13.0875 72.6602 13.7517 72.6602 15.06V17.1583C72.6602 18.4867 72.0363 19.151 70.7884 19.151H69.0071C67.7592 19.151 67.1352 18.4867 67.1352 17.1583V16.1469H69.1429V17.2338C69.1429 17.3143 69.1681 17.3848 69.2184 17.4451C69.2788 17.5055 69.3492 17.5357 69.4298 17.5357H70.3657C70.4462 17.5357 70.5116 17.5055 70.5619 17.4451C70.6223 17.3848 70.6525 17.3143 70.6525 17.2338V15.3167C70.6525 15.2362 70.6223 15.1657 70.5619 15.1053C70.5116 15.0449 70.4462 15.0147 70.3657 15.0147H69.0071C67.7592 15.0147 67.1352 14.3505 67.1352 13.0221V11.0748C67.1352 9.74637 67.7592 9.08216 69.0071 9.08216H70.6827C71.9306 9.08216 72.5546 9.74637 72.5546 11.0748V11.7994ZM76.1625 15.1657V19H74.0491V9.23311H76.1625V13.324H77.8382V9.23311H79.9515V19H77.8382V15.1657H76.1625ZM83.5777 9.23311V19H81.4643V9.23311H83.5777ZM87.2631 17.2489H89.603V19H85.1498V9.23311H89.603V10.954H87.2631V13.2486H89.452V14.9091H87.2631V17.2489ZM92.9388 17.2187H95.2484V19H90.8254V9.23311H92.9388V17.2187ZM100.13 9.23311C101.378 9.23311 102.002 9.89732 102.002 11.2257V17.0074C102.002 18.3358 101.378 19 100.13 19H96.2504V9.23311H100.13ZM99.8884 17.2489V10.9691C99.8884 10.8886 99.8582 10.8182 99.7978 10.7578C99.7475 10.6974 99.6821 10.6672 99.6016 10.6672H98.3638V17.5508H99.6016C99.6821 17.5508 99.7475 17.5206 99.7978 17.4602C99.8582 17.3999 99.8884 17.3294 99.8884 17.2489Z" fill="white"/>
</svg>
