<svg xmlns="http://www.w3.org/2000/svg" fill="none" viewBox="0 0 88 88">
  <rect width="88" height="88" rx="22" fill="url(#paint0_linear_260_2)" fill-opacity="0.8"/>
  <path d="M36.6 52.8889L43 46.4889L49.4 52.8889L51.8889 50.4L45.4889 44L51.8889 37.6L49.4 35.1111L43 41.5111L36.6 35.1111L34.1111 37.6L40.5111 44L34.1111 50.4L36.6 52.8889ZM30.5556 60C29.5778 60 28.7407 59.6519 28.0444 58.9556C27.3481 58.2593 27 57.4222 27 56.4444V31.5556C27 30.5778 27.3481 29.7407 28.0444 29.0444C28.7407 28.3481 29.5778 28 30.5556 28H55.4444C56.4222 28 57.2593 28.3481 57.9556 29.0444C58.6519 29.7407 59 30.5778 59 31.5556V56.4444C59 57.4222 58.6519 58.2593 57.9556 58.9556C57.2593 59.6519 56.4222 60 55.4444 60H30.5556Z" fill="#201E28"/>
  <defs>
    <linearGradient id="paint0_linear_260_2" x1="79" y1="7.19658e-07" x2="7.99999" y2="82.5" gradientUnits="userSpaceOnUse">
      <stop stop-color="#F4F0FF"/>
      <stop offset="1" stop-color="#8B8C8C"/>
    </linearGradient>
  </defs>
</svg>
