<svg xmlns="http://www.w3.org/2000/svg" fill="none" viewBox="0 0 88 88">
  <rect width="88" height="88" fill="url(#a)" fill-opacity=".8" rx="22"/>
  <path fill="#201E28" d="M43.915 48.21c-3.003 0-5.85.646-8.543 1.937-2.691 1.292-4.859 3.172-6.502 5.642-.623.955-.708 1.895-.255 2.822.453.926 1.19 1.389 2.21 1.389a2.57 2.57 0 0 0 1.232-.295c.369-.196.666-.491.893-.884a13.827 13.827 0 0 1 4.845-4.084 13.29 13.29 0 0 1 6.12-1.474c2.153 0 4.193.491 6.12 1.474a13.825 13.825 0 0 1 4.845 4.084c.283.393.61.688.977.884.369.197.78.295 1.233.295 1.02 0 1.757-.45 2.21-1.347.453-.899.368-1.797-.255-2.695-1.643-2.526-3.81-4.45-6.503-5.768-2.691-1.32-5.567-1.98-8.627-1.98ZM55.9 38.105c1.417 0 2.62-.491 3.613-1.473.991-.983 1.487-2.176 1.487-3.58 0-1.403-.496-2.596-1.487-3.578C58.52 28.49 57.317 28 55.9 28c-1.417 0-2.62.491-3.612 1.474-.992.982-1.488 2.175-1.488 3.579 0 1.403.496 2.596 1.488 3.579.991.982 2.195 1.473 3.612 1.473Zm-23.8 0c1.417 0 2.62-.491 3.612-1.473.992-.983 1.488-2.176 1.488-3.58 0-1.403-.496-2.596-1.488-3.578C34.721 28.49 33.517 28 32.1 28c-1.417 0-2.62.491-3.613 1.474-.991.982-1.487 2.175-1.487 3.579 0 1.403.496 2.596 1.488 3.579.991.982 2.195 1.473 3.612 1.473Z"/>
  <defs>
    <linearGradient id="a" x1="79" x2="8" y1="0" y2="82.5" gradientUnits="userSpaceOnUse">
      <stop stop-color="#F4F0FF"/>
      <stop offset="1" stop-color="#8B8C8C"/>
    </linearGradient>
  </defs>
</svg>
